<mxfile host="app.diagrams.net" modified="2024-04-04T09:35:44.595Z" agent="Mozilla/5.0 (Windows NT 10.0; Win64; x64) AppleWebKit/537.36 (KHTML, like Gecko) Chrome/123.0.0.0 Safari/537.36" etag="sVEKs-AIHlM26Z5--Ell" version="24.0.8" type="device">
  <diagram name="Page-1" id="gqRWQc0E1wpKkJzFoLSZ">
    <mxGraphModel dx="1050" dy="522" grid="1" gridSize="10" guides="1" tooltips="1" connect="1" arrows="1" fold="1" page="1" pageScale="1" pageWidth="1100" pageHeight="850" math="0" shadow="0">
      <root>
        <mxCell id="0" />
        <mxCell id="1" parent="0" />
        <mxCell id="yVelaC6Cv6p8FeWS8iD5-1" value="" style="rounded=1;whiteSpace=wrap;html=1;" vertex="1" parent="1">
          <mxGeometry x="220" y="170" width="220" height="170" as="geometry" />
        </mxCell>
        <mxCell id="yVelaC6Cv6p8FeWS8iD5-2" value="" style="rounded=1;whiteSpace=wrap;html=1;" vertex="1" parent="1">
          <mxGeometry x="620" y="170" width="340" height="170" as="geometry" />
        </mxCell>
        <mxCell id="yVelaC6Cv6p8FeWS8iD5-3" value="&lt;b&gt;Network&lt;/b&gt;" style="ellipse;shape=cloud;whiteSpace=wrap;html=1;" vertex="1" parent="1">
          <mxGeometry x="470" y="215" width="120" height="80" as="geometry" />
        </mxCell>
        <mxCell id="yVelaC6Cv6p8FeWS8iD5-6" value="GUI" style="rounded=1;whiteSpace=wrap;html=1;fillColor=#ffe6cc;strokeColor=#d79b00;" vertex="1" parent="1">
          <mxGeometry x="290" y="225" width="80" height="60" as="geometry" />
        </mxCell>
        <mxCell id="yVelaC6Cv6p8FeWS8iD5-14" style="edgeStyle=orthogonalEdgeStyle;rounded=0;orthogonalLoop=1;jettySize=auto;html=1;exitX=1;exitY=0.5;exitDx=0;exitDy=0;entryX=0.16;entryY=0.55;entryDx=0;entryDy=0;entryPerimeter=0;" edge="1" parent="1" source="yVelaC6Cv6p8FeWS8iD5-6" target="yVelaC6Cv6p8FeWS8iD5-3">
          <mxGeometry relative="1" as="geometry" />
        </mxCell>
        <mxCell id="yVelaC6Cv6p8FeWS8iD5-20" value="" style="edgeStyle=orthogonalEdgeStyle;rounded=0;orthogonalLoop=1;jettySize=auto;html=1;" edge="1" parent="1" source="yVelaC6Cv6p8FeWS8iD5-16" target="yVelaC6Cv6p8FeWS8iD5-19">
          <mxGeometry relative="1" as="geometry" />
        </mxCell>
        <mxCell id="yVelaC6Cv6p8FeWS8iD5-21" value="" style="edgeStyle=orthogonalEdgeStyle;rounded=0;orthogonalLoop=1;jettySize=auto;html=1;" edge="1" parent="1" source="yVelaC6Cv6p8FeWS8iD5-16" target="yVelaC6Cv6p8FeWS8iD5-19">
          <mxGeometry relative="1" as="geometry" />
        </mxCell>
        <mxCell id="yVelaC6Cv6p8FeWS8iD5-23" value="Not Registered" style="edgeLabel;html=1;align=center;verticalAlign=middle;resizable=0;points=[];" vertex="1" connectable="0" parent="yVelaC6Cv6p8FeWS8iD5-21">
          <mxGeometry x="-0.1413" relative="1" as="geometry">
            <mxPoint as="offset" />
          </mxGeometry>
        </mxCell>
        <mxCell id="yVelaC6Cv6p8FeWS8iD5-27" style="edgeStyle=orthogonalEdgeStyle;rounded=0;orthogonalLoop=1;jettySize=auto;html=1;exitX=1;exitY=0.5;exitDx=0;exitDy=0;exitPerimeter=0;" edge="1" parent="1" source="yVelaC6Cv6p8FeWS8iD5-16" target="yVelaC6Cv6p8FeWS8iD5-26">
          <mxGeometry relative="1" as="geometry" />
        </mxCell>
        <mxCell id="yVelaC6Cv6p8FeWS8iD5-29" value="Text" style="edgeLabel;html=1;align=center;verticalAlign=middle;resizable=0;points=[];" vertex="1" connectable="0" parent="yVelaC6Cv6p8FeWS8iD5-27">
          <mxGeometry x="-0.0945" relative="1" as="geometry">
            <mxPoint as="offset" />
          </mxGeometry>
        </mxCell>
        <mxCell id="yVelaC6Cv6p8FeWS8iD5-30" value="Registered" style="edgeLabel;html=1;align=center;verticalAlign=middle;resizable=0;points=[];" vertex="1" connectable="0" parent="yVelaC6Cv6p8FeWS8iD5-27">
          <mxGeometry x="-0.0945" y="3" relative="1" as="geometry">
            <mxPoint as="offset" />
          </mxGeometry>
        </mxCell>
        <mxCell id="yVelaC6Cv6p8FeWS8iD5-16" value="Check IP" style="shape=cylinder3;whiteSpace=wrap;html=1;boundedLbl=1;backgroundOutline=1;size=15;fillColor=#dae8fc;strokeColor=#6c8ebf;" vertex="1" parent="1">
          <mxGeometry x="640" y="215" width="60" height="80" as="geometry" />
        </mxCell>
        <mxCell id="yVelaC6Cv6p8FeWS8iD5-17" style="edgeStyle=orthogonalEdgeStyle;rounded=0;orthogonalLoop=1;jettySize=auto;html=1;exitX=0.875;exitY=0.5;exitDx=0;exitDy=0;exitPerimeter=0;entryX=0;entryY=0.5;entryDx=0;entryDy=0;entryPerimeter=0;" edge="1" parent="1" source="yVelaC6Cv6p8FeWS8iD5-3" target="yVelaC6Cv6p8FeWS8iD5-16">
          <mxGeometry relative="1" as="geometry" />
        </mxCell>
        <mxCell id="yVelaC6Cv6p8FeWS8iD5-19" value="Start Authorization" style="whiteSpace=wrap;html=1;fillColor=#f8cecc;strokeColor=#b85450;" vertex="1" parent="1">
          <mxGeometry x="800" y="185" width="120" height="30" as="geometry" />
        </mxCell>
        <mxCell id="yVelaC6Cv6p8FeWS8iD5-26" value="Connection Complete" style="whiteSpace=wrap;html=1;fillColor=#dae8fc;strokeColor=#6c8ebf;" vertex="1" parent="1">
          <mxGeometry x="800" y="280" width="120" height="30" as="geometry" />
        </mxCell>
        <mxCell id="yVelaC6Cv6p8FeWS8iD5-31" value="Client" style="text;html=1;align=center;verticalAlign=middle;whiteSpace=wrap;rounded=0;" vertex="1" parent="1">
          <mxGeometry x="220" y="170" width="60" height="30" as="geometry" />
        </mxCell>
        <mxCell id="yVelaC6Cv6p8FeWS8iD5-32" value="Server" style="text;html=1;align=center;verticalAlign=middle;whiteSpace=wrap;rounded=0;" vertex="1" parent="1">
          <mxGeometry x="620" y="170" width="60" height="30" as="geometry" />
        </mxCell>
      </root>
    </mxGraphModel>
  </diagram>
</mxfile>
